<?xml version="1.0" encoding="UTF-8" standalone="no"?>
<svg
   xmlns:dc="http://purl.org/dc/elements/1.1/"
   xmlns:cc="http://creativecommons.org/ns#"
   xmlns:rdf="http://www.w3.org/1999/02/22-rdf-syntax-ns#"
   xmlns:svg="http://www.w3.org/2000/svg"
   xmlns="http://www.w3.org/2000/svg"
   xmlns:xlink="http://www.w3.org/1999/xlink"
   xmlns:sodipodi="http://sodipodi.sourceforge.net/DTD/sodipodi-0.dtd"
   xmlns:inkscape="http://www.inkscape.org/namespaces/inkscape"
   id="svg1590"
   version="1.1"
   viewBox="0 0 173.99384 152.71765"
   height="152.71765mm"
   width="173.99384mm"
   sodipodi:docname="game-grid-logo.svg"
   inkscape:version="0.92.4 5da689c313, 2019-01-14">
  <sodipodi:namedview
     pagecolor="#ffffff"
     bordercolor="#666666"
     borderopacity="1"
     objecttolerance="10"
     gridtolerance="10"
     guidetolerance="10"
     inkscape:pageopacity="0"
     inkscape:pageshadow="2"
     inkscape:window-width="1853"
     inkscape:window-height="1010"
     id="namedview923"
     showgrid="false"
     inkscape:zoom="1.0654875"
     inkscape:cx="328.80725"
     inkscape:cy="288.60029"
     inkscape:window-x="67"
     inkscape:window-y="33"
     inkscape:window-maximized="1"
     inkscape:current-layer="layer1" />
  <defs
     id="defs1584">
    <linearGradient
       y2="402.3743"
       x2="676.72626"
       y1="368.27536"
       x1="676.24976"
       gradientTransform="matrix(0.46643078,0,0,0.91485581,-343.56976,-351.12757)"
       gradientUnits="userSpaceOnUse"
       id="linearGradient1368"
       xlink:href="#linearGradient1287" />
    <linearGradient
       id="linearGradient1287">
      <stop
         id="stop1283"
         offset="0"
         style="stop-color:#ffffff;stop-opacity:1" />
      <stop
         id="stop1285"
         offset="1"
         style="stop-color:#ffffff;stop-opacity:0" />
    </linearGradient>
    <linearGradient
       y2="402.3743"
       x2="676.72626"
       y1="368.27536"
       x1="676.24976"
       gradientTransform="matrix(0.46643078,0,0,0.91485581,-364.4468,-351.05822)"
       gradientUnits="userSpaceOnUse"
       id="linearGradient1364"
       xlink:href="#linearGradient1287" />
    <linearGradient
       y2="402.3743"
       x2="676.72626"
       y1="368.27536"
       x1="676.24976"
       gradientTransform="matrix(0.46643078,0,0,0.91485581,-386.91909,-354.73423)"
       gradientUnits="userSpaceOnUse"
       id="linearGradient1347"
       xlink:href="#linearGradient1287" />
    <linearGradient
       y2="402.3743"
       x2="676.72626"
       y1="368.27536"
       x1="676.24976"
       gradientTransform="matrix(0.46643078,0,0,0.91485581,-417.95721,-351.11024)"
       gradientUnits="userSpaceOnUse"
       id="linearGradient1340"
       xlink:href="#linearGradient1287" />
    <linearGradient
       y2="402.3743"
       x2="676.72626"
       y1="368.27536"
       x1="676.24976"
       gradientTransform="matrix(0.46643078,0,0,0.91485581,-460.09276,-345.99502)"
       gradientUnits="userSpaceOnUse"
       id="linearGradient1316"
       xlink:href="#linearGradient1287" />
    <linearGradient
       y2="402.3743"
       x2="676.72626"
       y1="368.27536"
       x1="676.24976"
       gradientTransform="matrix(0.46643078,0,0,0.91485581,-376.37859,-288.25234)"
       gradientUnits="userSpaceOnUse"
       id="linearGradient1310"
       xlink:href="#linearGradient1287" />
    <linearGradient
       gradientTransform="matrix(0.46643078,0,0,0.91485581,-461.68026,-280.12434)"
       gradientUnits="userSpaceOnUse"
       y2="402.3743"
       x2="676.72626"
       y1="368.27536"
       x1="676.24976"
       id="linearGradient1289"
       xlink:href="#linearGradient1287" />
  </defs>
  <metadata
     id="metadata1587">
    <rdf:RDF>
      <cc:Work
         rdf:about="">
        <dc:format>image/svg+xml</dc:format>
        <dc:type
           rdf:resource="http://purl.org/dc/dcmitype/StillImage" />
        <dc:title></dc:title>
      </cc:Work>
    </rdf:RDF>
  </metadata>
  <g
     transform="translate(163.34811,37.138587)"
     id="layer1">
    <path
       id="path1334"
       d="m -152.69597,-26.522227 1.45653,-3.53733 4.36962,0.27745 0.20806,-2.42756 4.16209,1.85383 2.20173,-5.57535 3.83529,4.47448 2.84094,-3.12505 2.59236,2.48584 2.69888,-3.30261 2.27274,2.6634 3.16056,-4.40346 2.20173,5.14919 3.08954,-2.7699 0.63921,3.94179 3.33811,-2.37929 0.31959,3.8708 2.66338,0.28409 -0.9588,2.30827 2.02417,-0.0355 0.24857,3.19606 0.88779,-3.83527 1.98866,-0.42614 0.17756,-3.37362 2.69891,1.13639 1.70455,-4.8296 3.054009,2.45031 1.88214,-2.48582 1.598031,2.02417 3.83526,-3.30261 0.213071,4.36796 2.982989,-2.76993 -0.461639,4.4745 2.23724,-2.4148 0.532659,3.83527 3.267101,-1.34945 -0.67474,3.97732 1.704581,-0.74575 0.390628,2.62786 1.136351,-4.33242 1.491509,0.81677 v -5.4333 l 4.190402,2.4148 1.49148,-4.26143 2.734408,3.16056 2.059681,-2.09519 1.846609,2.1662 2.485842,-2.80543 1.420458,2.98299 1.84661,-1.66904 1.02984,3.44463 2.48584,-1.98866 0.24857,4.04837 1.2074,-0.8168 0.92332,4.82962 0.21307,-6.35661 2.98299,0.99433 -1.42049,-4.61653 3.40913,2.13069 1.20742,-4.08384 3.0185,2.62787 2.62787,-3.0185 2.73439,3.23156 2.16622,-3.054 1.38496,2.87644 2.62787,-2.05967 0.21307,4.04833 2.23724,-1.13635 1.38496,3.97729 1.17189,-3.55116 1.31395,1.70455 0.67471,-4.61652 3.83527,3.01849 1.13638,-3.62219 2.3793,2.62786 2.34378,-1.66904 1.31392,2.76992 2.94749,-3.40913 1.63353,2.66338 2.7344195,-2.45031 0.9588,3.51565 3.55118,-3.16053 0.53269,3.12503 3.69321002,-2.3793 -0.99433,4.93615 4.61652998,-0.85228 -0.6037,3.90628 2.52135,-0.071 -1.02984,3.65771 2.27274,2.37929 -2.05967,3.054 3.23157,1.13639 -2.48582,2.98299 2.34376,2.130689 -1.95315,1.8111021 3.40913,2.556849 -5.68188,0.390642 1.27844,2.095198 -2.55685,1.136362 3.30258,2.627868 -2.4148,2.095211 2.09521,2.308249 -2.09521,2.130721 1.77559,3.053999 -2.27274,0.6747399 1.24291,3.231571 -5.07817998,1.882118 7.52847998,0.852271 -1.06534,3.40913 3.26707,1.27844 -2.34378,3.23157 2.73441,2.201731 -2.80543,1.988661 2.69891,2.343788 -3.79976,2.272741 0.21307,2.627871 -4.29694,1.77559 -1.55219998,2.97126 1.52701998,2.66337 3.16055,0.177559 -1.13638,3.764259 3.26707,1.846601 -2.20173,2.521321 2.73442,2.272768 -2.76993,2.62787 2.90834,0.79955 -2.60402,3.003391 0.58208,3.666179 4.63066,1.44875 -3.47792,3.59336 4.2902705,2.41925 -3.6932405,0.92329 0.74576,4.40346 -2.35044,-0.45057 -0.11986,3.83309 2.49304,1.57845 -1.2253,1.599 -1.88128,2.37444 1.62743,1.31267 -0.41005,3.94307 1.58165,2.57254 -3.07954,1.24898 1.68258,5.862047 -4.77245,-0.764607 3.24122,4.224697 -3.56860998,0.76645 0.28831998,1.481 -2.29746,0.99168 0.30882002,3.27772 -3.51154002,-1.22691 -1.28234,3.8244 -3.28479,-3.98312 -4.6424695,3.36358 -4.65312,-3.80722 -2.1082,4.0834 -4.1571,-3.61997 -2.74106,4.36572 -2.84096,-1.91762 -3.51565,2.73442 -0.0583,-3.51069 -3.03388,1.11448 -0.0373,-3.69281 -4.40758,1.71644 -3.33123,-4.3066 0.0651,3.07425 -2.72752,-0.53999 1.63812,4.89049 -3.19606,-1.98866 -2.45033,3.48014 -3.40913,-4.43897 -2.80543,3.55119 -3.12502,-2.52135 -2.53021,1.1164 -1.2859,-4.27233 -1.0219,2.72263 -1.45646,-2.86485 -1.30506,6.81383 -2.485808,-3.97733 -3.267091,3.87075 -2.20173,-2.94748 -3.125031,3.37362 -1.242909,-3.87079 -4.079351,3.71826 -0.04,-4.25625 -3.609718,1.29055 -0.0301,-4.56963 -3.105938,1.25034 0.041,-2.56867 -2.164411,0.23882 -1.58628,-1.42486 -1.948001,1.73713 1.27943,2.54005 -2.458259,-0.008 0.514731,3.20576 -2.938054,-1.37264 -1.79553,3.73851 -2.93603,-2.52761 -3.03154,1.13596 -0.74511,-2.41491 -1.42998,1.35683 -0.81553,-2.82304 -2.00393,1.35696 0.33365,-2.87301 -1.51305,1.26305 -1.73716,-1.92494 0.10264,2.42939 -1.72662,0.13537 0.0364,2.58909 -3.27735,-2.91186 -1.97395,4.71755 -1.85824,-2.70867 -2.55684,2.30827 -2.66339,-1.98866 -3.12503,3.76424 -3.05402,-4.33243 -2.91196,1.98866 -2.62787,-2.80543 -4.36795,2.4148 -0.39063,-3.76425 -3.76425,0.53268 -0.95882,-3.65772 -4.40346,2.13071 -0.0355,-4.79409 -3.48015,-0.14205 1.31393,-4.616527 -3.30259,-1.56253 2.73441,-3.90629 -3.62221,-2.4148 2.87646,-2.98299 -4.11937,-2.94748 2.87646,-2.84094 -2.05969,-3.26708 3.08953,-2.73441 c 0,0 -3.51567,-1.66905 -3.40913,-1.8111 0.10653,-0.14205 3.16055,-2.69889 3.16055,-2.69889 l -2.05969,-2.27275 2.45031,-2.4148 -2.09519,-2.05968 1.98866,-1.66906 -4.01283,-3.515659 3.90629,-1.63354 -1.42047,-1.77559 2.45032,-2.23724 -2.20173,-3.622201 4.01283,-1.2074 -2.4148,-3.622198 3.9418,0.142039 -0.071,-3.97732 3.97066,0.0021 0.21973,-2.23947 2.08044,-0.802799 -6.65846,-1.416042 2.48583,-3.160538 c 0,0 -5.82393,-0.461661 -5.7174,-0.6037 0.10654,-0.142052 1.70457,-3.83528 1.70457,-3.83528 l -2.59236,-0.0711 1.34944,-3.089518 -4.36794,-1.420471 3.58669,-2.734411 -3.08953,-1.953149 3.44464,-2.23724 -4.15487,-2.095201 2.98299,-2.982978 -2.27276,-2.556852 3.33811,-2.0596879 -3.9063,-1.811102 2.76992,-2.23724 -2.55685,-2.521329 3.19606,-1.846619 -3.40913,-3.444643 4.2259,-2.485818 -2.94747,-3.586692 3.3381,-0.8522781 -2.69889,-4.652051 5.61086,-0.88779 -3.19606,-4.93614 3.76425,-0.42614 -2.4148,-5.29125 z"
       style="display:inline;fill:#fdfa32;fill-opacity:1;stroke:none;stroke-width:0.26458332px;stroke-linecap:butt;stroke-linejoin:miter;stroke-opacity:1" />
    <path
       id="path1337"
       d="m -143.0967,-23.018217 1.46486,-4.57213 2.79654,1.50923 2.53021,-2.75217 1.95316,1.55366 1.77559,-1.59803 1.99752,2.21949 2.70777,-2.17512 1.15414,2.57461 2.75217,-2.35265 2.08632,2.35265 3.81752,-1.81996 0.48828,3.99507 2.39705,-0.0444 -0.22196,3.24046 3.32923,0.57705 -0.66585,1.77559 1.37609,1.28731 -1.42046,1.6424 1.06534,2.35267 -1.19854,2.17509 0.84342,1.5092611 -0.79902,1.953131 1.19854,1.686829 -0.39952,2.397038 2.08632,-3.151687 -1.19851,-1.509242 0.75461,-1.109739 -0.71024,-2.9297311 2.5746,-3.15166 -1.55363,-3.50679 3.19606,-0.31073 -1.06534,-3.46239 2.66337,0.0444 0.13317,-4.12824 2.44144,1.19854 1.55363,-2.70777 1.908762,2.08632 2.618999,-3.15169 2.618981,3.63997 2.441448,-2.04194 1.86436,2.35267 2.70777,-1.15414 -0.31073,4.79409 2.84094,-0.48829 -0.577059,3.24046 2.086319,0.44389 -0.97658,2.97411 2.219492,1.81999 -1.376071,2.70777 2.219481,1.6424011 -1.065371,2.57461 1.64243,1.77559 -0.221941,2.48584 -0.79901,0.399489 1.376072,1.198541 -0.621451,3.196029 1.73119,1.4205 0.26633,-4.039481 -0.93218,-2.530207 1.3317,-2.30827 -1.908759,-2.175092 1.242909,-2.6633811 -1.376069,-2.663399 1.020948,-2.9297 -1.287309,-2.08632 2.57461,-1.99755 -1.242909,-3.37362 1.99753,-0.4439 0.0444,-2.66337 3.196059,0.88778 1.020971,-2.9741 1.90876,1.95315 2.041919,-2.21948 2.397051,2.70777 3.240428,-3.06289 c 0,0 0.39952,3.81751 0.57708,3.72874 0.17756,-0.0888 2.21948,-1.24293 2.21948,-1.24293 l -0.35512,2.6634 2.92973,-0.9322 -1.06537,4.17263 1.68682,1.90876 0.0888,3.15169 1.55366,1.19851 -1.2873,2.04192 1.42047,3.9950801 0.22193,-3.8175201 1.50926,-3.46239 -1.37607,-2.30827 2.57458,-1.86436 0.39952,-3.72875 2.84094,0.17756 -0.17756,-5.14919 4.21703,2.13069 2.17509,-3.55118 2.84094,3.41802 3.15169,-2.75217 1.598,2.92973 3.10729,-0.88781 -0.17756,8.03455 1.7312,-1.81996 -0.31073,-3.95071 2.75217,0.57708 1.73119,-3.24045 2.66338,1.68679 1.46487,-3.68432 2.88533,3.24043 3.37362,-2.79654 2.48582,2.92971 1.90875,-2.84094 2.0863195,3.55118 3.0185,-2.04192 0.66585,1.42047 1.2873,-0.39952 -0.0444,1.55366 2.6634,-0.26636 -0.93218,3.90631 4.17261002,0.22193 -1.73119,3.24046 2.61899998,3.77312 -2.26387998,2.17511 1.86435998,1.7312 -2.39704998,2.2638811 -2.84093002,-0.133191 -2.44145,1.953151 -2.57458,-2.086322 -3.2404495,2.041951 -0.88779,-1.59803 -3.10729,3.99505 6.2145595,-0.93218 1.37607,1.109741 3.55118,-1.242901 0.57706,2.175111 1.99755,1.95313 -0.62145,2.53021 2.84094002,3.595579 -3.06290002,2.086319 1.02097,2.086322 -2.30827,1.3760689 -0.0888,1.73119 -4.7497,-1.331669 -0.31072,1.81996 -4.4833695,-0.754621 1.37607,2.618981 -0.31072,3.329249 2.26388,-1.55366 2.7077695,2.175122 1.77559,-1.997552 1.06535,2.219481 3.24046,-1.376071 -0.17757,2.175081 2.66338002,0.532689 -1.33167,3.37362 3.37358998,2.79654 -2.17508998,1.64243 1.55363998,2.79654 -4.35018,1.24293 2.21949002,1.686801 -3.86191002,1.50926 0.53266,1.420469 -7.6793995,1.6868 -0.44392,-1.420468 -7.3243,1.553628 8.26841,0.57917 1.2243295,3.005262 1.38231,1.73559 -1.71247,2.892039 3.1146,-2.279021 0.91099,3.075282 2.75217,-2.219511 -0.44391,2.374869 2.88567002,-1.412259 0.27553,3.504221 -2.33732002,0.319588 3.62342002,0.87884 -1.72841,3.57614 4.01447998,-2.656478 -0.1831,5.300398 c -0.26632,-0.0888 -0.59369,-0.937739 -0.59369,-0.937739 l -0.7268,2.44796 1.88096,1.663639 -1.59569,1.897822 1.23224,2.377458 -1.53198,0.95015 1.52643,2.13216 -0.48034,1.62693 0.88539,2.59287 -1.46486,1.33169 1.81998,1.99754 -2.44143,1.77558 1.90875,2.48583 -1.95315,1.62023 1.30882,2.44559 -2.15540998,0.8759 1.65254998,1.90401 -1.97505998,0.005 -0.25414,1.34587 -2.46718002,-0.0995 -0.0658,2.00475 3.4846,2.6301 -4.33632,0.48552 4.58601,4.42787 -5.10413,-0.46888 -0.79901,2.1751 -2.1751,-2.08632 0.16594,3.150457 2.63634,3.1763 -3.49781,-0.41875 -0.80556,3.20681 -1.65404,-2.01627 -2.7597295,3.04684 -1.97194,-3.00488 -1.86437,3.4624 -7.41542,-3.20508 -1.10975,2.04193 -2.44143,-1.81998 -2.28052,1.29979 -5.99331,1.0709 -1.37608,-3.19606 -3.37362,2.39705 -0.75462,-2.48583 -3.20645,-1.4914 -0.41131,2.02962 -1.34001,-1.97811 -2.03362,3.64273 -4.50555,1.39273 -1.06535,-3.55118 -3.41801,4.03947 -2.30826,-3.10728 -2.57461,3.55117 -2.352647,-4.35019 -1.953152,2.48582 -0.754628,-5.06042 -1.642412,2.30826 -2.840948,-1.33169 -2.041922,3.10728 -3.595568,-1.90876 -0.66585,3.50679 -3.24045,-4.26141 -3.90629,3.77312 -1.819982,-4.03946 -2.39704,1.33169 -1.198528,-6.436507 -2.796551,1.77559 0.57707,-2.53021 -3.10728,0.79901 0.310729,-2.61899 -3.63996,0.71023 2.219481,3.06289 -2.1307,1.19853 1.90876,2.796547 -5.415552,0.8434 -5.06043,3.10728 -1.59803,-3.63995 -2.70777,3.10728 -2.04193,-2.88533 -1.46486,0.0555 0.71024,-2.13071 -1.86437,-1.598027 1.42047,-3.77313 -0.57707,-4.17263 -1.81998,6.61407 -3.0185,-0.57707 1.59803,4.971647 -3.418,-1.24291 0.79901,2.79655 -2.5746,-1.19852 0.13317,4.17263 -3.50679,-2.84094 -2.53022,3.24045 -2.53021,-4.08386 -0.88779,3.55118 -1.77559,-3.32923 -2.21949,2.84094 -1.81998,-2.21948 -2.44143,2.30826 -0.39951,-3.28483 -2.30826,0.44389 -0.79902,-2.21948 -2.66338,2.30826 v -3.68434 l -4.12825,1.24291 0.57707,-3.906297 -2.92972,1.77559 0.79901,-4.66092 -3.10728,-0.48829 2.26388,-2.44143 -2.79655,-3.28484 2.53021,-2.26388 -3.4624,-1.64241 3.0185,-2.84095 -2.26387,-2.61899 2.92972,-2.30827 -2.04193,-1.95314 1.37608,-0.97658 -2.97411,-2.79655 3.10728,-1.90876 -2.44143,-2.26387 2.13071,-1.86437 -2.53022,-2.30827 2.70777,-2.175089 -2.1307,-2.530221 2.53021,-1.464858 -1.59803,-2.352651 2.39705,-1.020969 -1.15414,-3.062891 3.10728,-0.62145 -0.26633,-4.35019 2.84094,1.464861 -1.02097,-3.906301 3.59557,1.06535 1.19852,-2.26387 2.1751,0.4439 -0.0888,-3.062891 c 1.60913,0.277431 2.92972,2.041922 2.92972,2.041922 l 1.77559,-2.086311 3.59557,1.775579 3.32923,-1.19852 1.50925,1.59803 5.47946,-0.829199 7.97062,0.962369 c 0,0 -1.68681,2.1751 -1.50925,2.1751 h 1.90876 l 1.24291,3.151672 -0.13317,-5.337871 0.93219,0.887799 0.31072,-2.44144 1.81998,2.13071 1.19853,-2.485829 2.53021,1.46486 3.32923,-1.287301 1.10974,0.799021 2.30827,-1.598031 3.728731,1.997531 1.686809,-1.77558 1.33169,1.464861 1.331701,-1.642422 2.17509,1.908751 1.7312,-0.665839 0.355118,1.642419 2.397041,-0.84341 0.13317,1.331699 2.130711,-2.929729 1.908759,1.686809 1.908752,-1.908749 c 0,0 1.819979,1.6868 1.90876,1.509249 0.0888,-0.177559 1.77559,-1.7312 1.77559,-1.7312 l 1.7312,1.775592 2.796548,-1.10975 1.420471,4.261419 1.864371,-3.196061 0.843409,1.908752 1.154129,-1.46486 0.887791,1.59803 1.242909,-3.151672 c 0,0 2.35266,1.37608 2.39705,1.198531 0.0444,-0.177559 2.53021,-1.24292 2.53021,-1.24292 l 1.10975,1.819979 2.26387,-1.50925 2.04193,1.64242 2.92972,-1.19852 1.10974,1.287301 0.97658,-1.553641 1.42047,2.26388 2.04192,-1.46486 2.26388,1.59802 2.61899,-2.308259 1.42047,1.420471 3.59557,-0.443902 1.19852,1.287311 1.77559,-2.752169 2.66339,2.086319 0.71023,-2.752161 2.04193,2.707772 3.41801,-0.887791 -0.66585,-1.77559 c 0,0 -2.70777,0.93218 -2.5746,0.710229 0.13317,-0.221948 0.13317,-1.642419 0.13317,-1.642419 l -2.619,-0.53267 -1.90876,1.553639 -2.66338,-1.020969 -1.95315,1.7312 -1.55364,-1.775589 -1.73119,1.553638 -2.92973,-1.020958 -1.10974,1.242909 -2.26387,-1.020961 c 0,0 -1.46487,1.553642 -1.46487,1.24291 0,-0.31073 -1.15413,-2.263879 -1.15413,-2.263879 l -1.68681,1.065358 -0.93218,-3.329228 -0.71024,3.55118 -1.7312,-1.420469 -1.15413,1.509249 -1.99754,-1.59803 -1.19852,1.06535 -2.04192,-2.04193 -2.663389,2.219489 -3.551179,-0.93219 -1.19852,1.686811 -1.775592,-1.33169 -1.065348,1.154131 -1.553641,-1.99753 -1.287301,0.843399 -0.84341,-2.5746 -1.242909,2.17509 -1.46486,-0.488281 -1.598031,1.553641 -3.018499,-1.642419 -1.99754,1.731198 -1.77559,-1.331688 -1.020961,0.93218 -2.618989,-1.020961 -0.93219,1.731201 -0.66584,-1.420482 -1.10975,0.710242 -2.796551,-4.128241 -0.799009,3.417999 -1.154131,-1.73119 -1.598028,2.66338 -4.172642,-1.953149 -2.08631,1.953149 -2.53022,-1.686808 -1.55364,1.642419 -2.53021,-1.509249 -1.24291,1.731198 -2.13071,-2.1751 -1.33169,2.1751 -1.90876,-3.151669 0.22195,2.974109 -2.75216,-1.553638 0.71023,2.175089 -2.48582,0.310729 -4.7497,-0.39951 -5.23799,-2.086308 -4.48336,1.731198 -1.59803,-1.420469 -2.1751,0.754621 -0.8434,-2.130711 -2.66338,1.154139 -0.62146,-2.397048 h -2.53021 l -0.39951,-2.352651 -2.79655,1.02096 0.66584,-2.79655 -3.4624,-0.932191 0.26634,-3.417998 -1.37608,-0.577072 2.44144,-2.97411 -2.57461,-2.70777 2.75216,-1.509249 -2.35265,-2.219489 1.55364,-2.263881 -3.9063,-1.953141 3.4624,-2.2194889 -1.86437,-1.864371 1.95315,-1.19852 -3.99507,-1.864371 3.10728,-2.663377 -1.50925,-2.974113 2.66338,-1.819979 -2.44143,-2.752158 2.35265,-2.574611 -2.08632,-4.2170211 3.15167,0.0888 -0.0888,-3.90629 3.06289,-2.21949 -1.73119,-2.88533 3.59556,0.39951 1.37608,-3.10728 z"
       style="fill:#4ef706;fill-opacity:0.99681528;stroke:none;stroke-width:0.26458332px;stroke-linecap:butt;stroke-linejoin:miter;stroke-opacity:1" />
    <path
       id="path1318"
       d="m -104.11007,-18.549427 h 2.51426 v -3.46795 h 10.31716 v 5.11522 h 4.248232 l 8.669859,39.7947 -3.29456,-0.260109 v 4.161549 h 3.29456 v 7.716181 h -12.311219 l -3.554651,-12.051109 h -8.236371 v 4.421608 h 2.687659 v 7.456091 H -115.4676 Z"
       style="opacity:1;fill:#f95d46;fill-opacity:1;stroke:#414495;stroke-width:1.46500015;stroke-linecap:butt;stroke-linejoin:miter;stroke-miterlimit:4;stroke-dasharray:none;stroke-opacity:1" />
    <path
       id="path1336"
       d="m -97.854699,-0.6102859 h 4.012829 V 12.635602 h -3.870799 z"
       style="opacity:1;fill:#9ae31f;fill-opacity:1;stroke:#414495;stroke-width:1.46500015;stroke-linecap:butt;stroke-linejoin:miter;stroke-miterlimit:4;stroke-dasharray:none;stroke-opacity:1" />
    <path
       id="path1343"
       d="m -74.979298,-21.410477 h 11.270819 v 2.77434 h 3.294539 l 4.94184,22.1081601 4.50834,-21.9347501 h 3.38124 v -2.77437 h 12.57131 v 10.05705 h -3.46795 v 5.4620301 h 3.03445 V 17.864012 h -3.03445 v 4.68172 h 3.29454 V 34.596863 H -49.4899 V 14.482764 l -4.07482,20.460891 h -3.98815 l -4.68172,-20.287483 0.17338,20.287483 h -9.190059 v -5.37532 h -3.64133 v -50.978812"
       style="display:inline;fill:#f95d46;fill-opacity:1;stroke:#414495;stroke-width:1.46500015;stroke-linecap:butt;stroke-linejoin:miter;stroke-miterlimit:4;stroke-dasharray:none;stroke-opacity:1" />
    <path
       id="path1371"
       d="m -31.17915,-17.561057 h 5.13258 v -3.74539 h 20.1834395 v 3.67602 h 2.21949 v 7.35206 H -17.51543 v 4.5083411 h -4.43897 v 5.132538 h 15.9525495 v 9.294101 H -17.51543 V 22.597773 h 13.7330695 v 7.005241 h -2.84372 v 5.479359 H -28.68222 v -14.77346 h -2.35821 z"
       style="fill:#f95d46;fill-opacity:1;stroke:#414495;stroke-width:1.46500015;stroke-linecap:butt;stroke-linejoin:miter;stroke-miterlimit:4;stroke-dasharray:none;stroke-opacity:1" />
    <path
       id="path1291"
       d="m -64.056158,45.541694 v 53.556199 h 4.305798 v 2.707767 h 11.05303 V 45.541694 h -2.24169 -2.24168 v 2.19729 h -4.3058 v -2.19729 h -3.28483 z"
       style="fill:#fd6140;fill-opacity:1;stroke:#414495;stroke-width:1.40900004;stroke-linecap:butt;stroke-linejoin:miter;stroke-miterlimit:4;stroke-dasharray:none;stroke-opacity:1" />
    <g
       aria-label="R"
       transform="scale(0.84186799,1.1878347)"
       style="font-style:normal;font-variant:normal;font-weight:normal;font-stretch:normal;font-size:53.97059631px;line-height:125%;font-family:'Final Fantasy';-inkscape-font-specification:'Final Fantasy, Normal';font-variant-ligatures:normal;font-variant-caps:normal;font-variant-numeric:normal;font-feature-settings:normal;text-align:start;letter-spacing:0px;word-spacing:0px;writing-mode:lr-tb;text-anchor:start;fill:#f95d46;fill-opacity:1;stroke:#414495;stroke-width:1.42031097;stroke-linecap:butt;stroke-linejoin:miter;stroke-miterlimit:4;stroke-dasharray:none;stroke-opacity:1"
       id="text1273">
      <path
         d="M -99.077444,57.433144 V 43.940495 H -119.31642 V 57.433144 Z M -132.80907,84.418442 V 37.19417 h 40.47795 v 6.746325 h 6.746325 v 13.492649 h -6.746325 v 6.746324 h -6.746324 v 6.746325 h 6.746324 v 6.746324 h 6.746325 v 6.746325 h -13.492649 v -6.746325 h -6.746326 v -6.746324 h -6.74632 v -6.746325 h -6.74633 v 20.238974 z"
         style="font-style:normal;font-variant:normal;font-weight:normal;font-stretch:normal;font-size:53.97059631px;font-family:'Final Fantasy';-inkscape-font-specification:'Final Fantasy, Normal';font-variant-ligatures:normal;font-variant-caps:normal;font-variant-numeric:normal;font-feature-settings:normal;text-align:start;writing-mode:lr-tb;text-anchor:start;fill:#f95d46;fill-opacity:1;stroke:#414495;stroke-width:1.42031097;stroke-miterlimit:4;stroke-dasharray:none;stroke-opacity:1"
         id="path925" />
    </g>
    <g
       aria-label="D"
       transform="scale(0.86707258,1.153306)"
       style="font-style:normal;font-variant:normal;font-weight:normal;font-stretch:normal;font-size:55.69332123px;line-height:125%;font-family:'Final Fantasy';-inkscape-font-specification:'Final Fantasy, Normal';font-variant-ligatures:normal;font-variant-caps:normal;font-variant-numeric:normal;font-feature-settings:normal;text-align:start;letter-spacing:0px;word-spacing:0px;writing-mode:lr-tb;text-anchor:start;fill:#f95d46;fill-opacity:1;stroke:#414495;stroke-width:1.40900004;stroke-linecap:butt;stroke-linejoin:miter;stroke-miterlimit:4;stroke-dasharray:none;stroke-opacity:1"
       id="text1277">
      <path
         d="m -22.476463,79.995793 v -6.961665 h 6.961665 V 52.149133 h -6.961665 v -6.961665 h -13.923331 v 34.808325 z m -27.846661,6.961665 V 38.225802 h 34.808326 v 6.961666 h 6.961665 v 6.961665 h 6.9616651 V 73.034128 H -8.553133 v 6.961665 h -6.961665 v 6.961665 z"
         style="font-style:normal;font-variant:normal;font-weight:normal;font-stretch:normal;font-size:55.69332123px;font-family:'Final Fantasy';-inkscape-font-specification:'Final Fantasy, Normal';font-variant-ligatures:normal;font-variant-caps:normal;font-variant-numeric:normal;font-feature-settings:normal;text-align:start;writing-mode:lr-tb;text-anchor:start;fill:#f95d46;fill-opacity:1;stroke:#414495;stroke-width:1.40900004;stroke-miterlimit:4;stroke-dasharray:none;stroke-opacity:1"
         id="path928" />
    </g>
    <path
       id="path1279"
       d="m -117.76357,61.646834 v -13.35159 h -4.85513 v -4.33493 h -17.85993 v 4.16152 h -4.59502 v 4.508349 h -4.68172 v 37.62721 h 4.50831 v 4.68172 h 4.68173 v 4.85513 h 13.95849 v -4.68172 h 4.76842 v -4.16152 h 3.81474 l 1.82068,-23.92884 h -15.69247 v 8.84325 h 4.59505 v 5.63541 h -4.50834 v 9.19006 h -4.50832 V 53.583874 h 4.50832 v 3.467941 h 4.68172 v 5.028509 h 9.53685"
       style="fill:#f95d46;fill-opacity:1;stroke:#414495;stroke-width:1.56500006;stroke-linecap:butt;stroke-linejoin:miter;stroke-miterlimit:4;stroke-dasharray:none;stroke-opacity:1" />
    <path
       id="path1281"
       d="m -147.0978,56.183434 h 1.97342 l -1.29405,28.617479 z"
       style="fill:url(#linearGradient1289);fill-opacity:1;stroke:none;stroke-width:0.17283529px;stroke-linecap:butt;stroke-linejoin:miter;stroke-opacity:1" />
    <path
       style="fill:url(#linearGradient1310);fill-opacity:1;stroke:none;stroke-width:0.17283529px;stroke-linecap:butt;stroke-linejoin:miter;stroke-opacity:1"
       d="m -61.79613,48.055434 h 1.97342 l -1.29405,28.617479 z"
       id="path1308" />
    <path
       style="fill:#f95d46;fill-opacity:1;stroke:#414495;stroke-width:1.46500015;stroke-linecap:butt;stroke-linejoin:miter;stroke-miterlimit:4;stroke-dasharray:none;stroke-opacity:1"
       d="M -116.17607,-4.2238359 V -17.575427 h -4.85513 v -4.33493 h -17.85993 v 4.16152 h -4.59502 v 4.50835 h -4.68172 v 37.627211 h 4.50831 v 4.68172 h 4.68173 v 4.855131 h 13.95849 v -4.68172 h 4.76842 v -4.16152 h 3.81474 l 1.82068,-23.9288429 h -15.69247 v 8.843251 h 4.59505 v 5.6354109 h -4.50834 v 9.190058 h -4.50832 v -37.107009 h 4.50832 v 3.4679401 h 4.68172 v 5.028509 h 9.53685"
       id="path1312" />
    <path
       style="fill:url(#linearGradient1316);fill-opacity:1;stroke:none;stroke-width:0.17283529px;stroke-linecap:butt;stroke-linejoin:miter;stroke-opacity:1"
       d="m -145.5103,-9.6872379 h 1.97342 l -1.29405,28.6174809 z"
       id="path1314" />
    <path
       id="path1338"
       d="m -103.37475,-14.802457 h 1.97342 l -5.97578,27.837191 z"
       style="fill:url(#linearGradient1340);fill-opacity:1;stroke:none;stroke-width:0.17283529px;stroke-linecap:butt;stroke-linejoin:miter;stroke-opacity:1" />
    <path
       id="path1345"
       d="m -72.336629,-18.426457 h 1.973421 l -1.294051,28.617481 z"
       style="fill:url(#linearGradient1347);fill-opacity:1;stroke:none;stroke-width:0.17283529px;stroke-linecap:butt;stroke-linejoin:miter;stroke-opacity:1" />
    <path
       style="fill:url(#linearGradient1364);fill-opacity:1;stroke:none;stroke-width:0.17283529px;stroke-linecap:butt;stroke-linejoin:miter;stroke-opacity:1"
       d="m -49.86434,-14.750437 h 1.97342 l -4.97007,19.0459491 z"
       id="path1362" />
    <path
       style="fill:url(#linearGradient1368);fill-opacity:1;stroke:none;stroke-width:0.17283529px;stroke-linecap:butt;stroke-linejoin:miter;stroke-opacity:1"
       d="m -28.9873,-14.819797 h 1.97342 l -1.29405,28.617481 z"
       id="path1366" />
  </g>
</svg>
